<svg preserveAspectRatio="none" width="100%" height="100%" overflow="visible" style="display: block;" viewBox="0 0 36 36" fill="none" xmlns="http://www.w3.org/2000/svg">
<g id="BoxiconsLogo">
<path id="Union" d="M17.9999 4.47119C21.6629 4.47119 22.1205 4.4897 23.5634 4.5542C24.6842 4.57721 25.7932 4.79012 26.8427 5.18408C27.7392 5.53148 28.5534 6.06192 29.2333 6.7417C29.9133 7.42171 30.4444 8.23658 30.7919 9.1333C31.1926 10.1965 31.4057 11.3215 31.4208 12.4575C31.5048 13.8929 31.5047 14.3581 31.5077 18.021C31.5077 21.685 31.4882 22.1428 31.4238 23.5854C31.4013 24.7089 31.1893 25.8167 30.7948 26.8667C30.447 27.7631 29.9162 28.5774 29.2363 29.2573C28.5563 29.9373 27.7421 30.468 26.8456 30.8159C25.7962 31.2098 24.6871 31.4228 23.5663 31.4448C22.134 31.5288 21.6644 31.5288 18.0019 31.5288C14.3389 31.5288 13.8809 31.5093 12.4364 31.4448C11.3135 31.4079 10.2052 31.1788 9.1591 30.769C8.26236 30.422 7.44774 29.892 6.7675 29.2124C6.08726 28.5327 5.55575 27.7183 5.20793 26.8218C4.81343 25.7703 4.60153 24.6625 4.57903 23.5405C4.49505 22.1069 4.49504 21.6386 4.49504 17.9761C4.49504 14.3131 4.51453 13.8551 4.57903 12.4106C4.60024 11.2904 4.81321 10.1819 5.20793 9.1333C5.55515 8.23647 6.08554 7.42174 6.76555 6.7417C7.44554 6.0617 8.26037 5.53132 9.15715 5.18408C10.2062 4.79028 11.3152 4.57738 12.4355 4.5542C13.8676 4.47173 14.3374 4.47119 17.9999 4.47119ZM17.9911 11.0337C14.1602 11.0337 11.0567 14.1373 11.0566 17.9683C11.0566 21.7993 14.1601 24.9028 17.9911 24.9028C19.8302 24.9028 21.594 24.172 22.8945 22.8716C24.1948 21.5711 24.9257 19.8073 24.9257 17.9683C24.9257 16.1292 24.1949 14.3654 22.8945 13.0649C21.594 11.7645 19.8302 11.0337 17.9911 11.0337ZM17.9911 13.4644C20.4787 13.4644 22.4949 15.4807 22.495 17.9683C22.495 20.456 20.4788 22.4731 17.9911 22.4731C15.5034 22.4731 13.4863 20.456 13.4863 17.9683C13.4864 15.4807 15.5035 13.4644 17.9911 13.4644ZM25.2011 9.16162C24.9888 9.16162 24.778 9.20344 24.582 9.28467C24.386 9.36589 24.2075 9.4843 24.0575 9.63428C23.9076 9.78427 23.7891 9.96274 23.7079 10.1587C23.6267 10.3548 23.5849 10.5656 23.5849 10.7778C23.5847 10.9899 23.6259 11.2 23.707 11.396C23.7881 11.5923 23.9073 11.7712 24.0575 11.9214C24.2077 12.0716 24.3867 12.1908 24.5829 12.272C24.7789 12.353 24.989 12.3942 25.2011 12.394C26.0935 12.394 26.8171 11.6716 26.8173 10.7778C26.8173 10.5656 26.7755 10.3548 26.6943 10.1587C26.613 9.96264 26.4937 9.78434 26.3437 9.63428C26.1937 9.48429 26.0152 9.36587 25.8193 9.28467C25.6233 9.20349 25.4132 9.16167 25.2011 9.16162Z" fill="var(--fill-0, #ADB3C1)"/>
</g>
</svg>
