<svg preserveAspectRatio="none" width="100%" height="100%" overflow="visible" style="display: block;" viewBox="0 0 16 16" fill="none" xmlns="http://www.w3.org/2000/svg">
<g id="Boxicons" opacity="0.4" clip-path="url(#clip0_0_101)">
<path id="Union" d="M5.99593 2.62456C6.24018 2.26216 6.5542 1.9515 6.91933 1.71136C7.28447 1.47124 7.69397 1.30616 8.12347 1.22546C8.55234 1.14009 8.99431 1.14062 9.42302 1.2268C9.85157 1.31299 10.2588 1.48322 10.6213 1.72759C10.9838 1.97207 11.2947 2.28641 11.5353 2.65155C11.7757 3.01646 11.9414 3.42532 12.0231 3.85461C12.1087 4.28361 12.1086 4.72578 12.0225 5.1547C11.9365 5.58361 11.7664 5.99148 11.522 6.35431L8.5393 10.7764C8.39238 10.9932 8.20394 11.1788 7.98488 11.3224C7.76569 11.4661 7.51964 11.5653 7.26203 11.6135C6.73093 11.7166 6.19879 11.6101 5.76283 11.3161C5.3268 11.022 5.0295 10.5687 4.92657 10.0394C4.82295 9.50876 4.92874 8.97621 5.22314 8.53962L8.20587 4.11754L9.31099 4.86295L6.32826 9.28503C6.28046 9.35779 6.24823 9.43972 6.23216 9.52529C6.21613 9.61079 6.21642 9.69862 6.23455 9.7837C6.26891 9.96047 6.36951 10.1162 6.50879 10.2102C6.58171 10.258 6.6636 10.2915 6.74932 10.3076C6.83491 10.3237 6.92308 10.3224 7.00827 10.3044C7.09373 10.289 7.17573 10.2568 7.24876 10.2098C7.32164 10.1629 7.38482 10.1022 7.43418 10.031L10.4169 5.60891C10.5628 5.39097 10.6641 5.1462 10.7152 4.88897C10.7664 4.63145 10.7657 4.36577 10.714 4.10836C10.6659 3.8512 10.5675 3.60617 10.4241 3.3874C10.2804 3.1685 10.095 2.97957 9.87803 2.83299C9.43891 2.53761 8.90637 2.43244 8.37803 2.53506C7.84939 2.63686 7.39636 2.93389 7.10185 3.37051L4.11803 7.79421C3.63238 8.51433 3.45974 9.40064 3.63298 10.2894C3.80589 11.1787 4.29787 11.9358 5.01743 12.4212C5.73754 12.9069 6.62383 13.0794 7.51261 12.9062C8.40155 12.7339 9.15865 12.2418 9.64441 11.5218L12.6271 7.09972L13.7331 7.84568L10.7503 12.2678C10.0651 13.2835 9.00569 13.9742 7.76691 14.2145C6.52829 14.4557 5.28782 14.2115 4.27202 13.5263C3.25677 12.8415 2.56564 11.7828 2.32473 10.5437C2.08349 9.3051 2.32701 8.06406 3.01211 7.04825L5.99593 2.62456Z" fill="var(--fill-0, white)"/>
</g>
<defs>
<clipPath id="clip0_0_101">
<rect width="16" height="16" fill="white"/>
</clipPath>
</defs>
</svg>
