<svg preserveAspectRatio="none" width="100%" height="100%" overflow="visible" style="display: block;" viewBox="0 0 80.8889 15.5556" fill="none" xmlns="http://www.w3.org/2000/svg">
<g id="Danda">
<path id="Vector" d="M77.8905 15.2946V13.1469C76.824 14.572 74.8519 15.5555 72.3767 15.5555C69.3582 15.5555 67.4666 14.4516 67.4666 12.0831V11.5813C67.4666 9.1326 69.5796 8.43009 72.2761 8.43009H77.6893C77.1862 7.02507 75.6971 6.8645 73.6042 6.8645H66.4202L68.9557 4.25518H74.2079C79.1583 4.25518 80.8889 5.74049 80.8889 10.7183V15.2946H77.8905ZM73.081 12.9261C74.7311 12.9261 76.824 12.4244 77.8905 11.762V10.7183H72.3767C71.0687 10.7183 70.3241 10.8588 70.3241 11.6416V11.8423C70.3241 12.7254 71.451 12.9261 73.081 12.9261Z" fill="var(--fill-0, #1E1E1E)"/>
<path id="Vector_2" d="M62.2221 15.2946V12.9262C61.0952 14.291 59.0426 15.5556 56.3662 15.5556C53.0056 15.5556 50.631 13.4079 50.631 10.076V9.43369C50.631 6.10179 53.0056 3.95412 56.3662 3.95412C59.0426 3.95412 61.0952 5.21864 62.2221 6.58351V0H65.2205V15.2946H62.2221ZM53.4684 10.076C53.4684 11.9627 55.2393 12.7857 57.5535 12.7857C59.2438 12.7857 61.1354 12.1634 62.2221 11.5211V7.98853C61.1354 7.34624 59.2438 6.72401 57.5535 6.72401C55.2393 6.72401 53.4684 7.54695 53.4684 9.43369V10.076Z" fill="var(--fill-0, #1E1E1E)"/>
<path id="Vector_3" d="M43.1607 6.72401C41.6716 6.72401 39.5787 7.28601 38.5525 8.06881V15.2946H35.5541V4.25519H38.5525V6.64372C39.619 5.13834 41.6716 3.95411 44.026 3.95411C47.3263 3.95411 49.2179 6.0215 49.2179 9.27311V15.2946H46.2195V9.87526C46.2195 7.46666 45.4347 6.72401 43.1607 6.72401Z" fill="var(--fill-0, #1E1E1E)"/>
<path id="Vector_4" d="M30.5466 15.2946V13.1469C29.48 14.572 27.5079 15.5555 25.0328 15.5555C22.0142 15.5555 20.1226 14.4516 20.1226 12.0831V11.5813C20.1226 9.1326 22.2356 8.43009 24.9321 8.43009H30.3453C29.8422 7.02507 28.3531 6.8645 26.2603 6.8645H19.0762L21.6118 4.25518H26.864C31.8143 4.25518 33.5449 5.74049 33.5449 10.7183V15.2946H30.5466ZM25.7371 12.9261C27.3872 12.9261 29.48 12.4244 30.5466 11.762V10.7183H25.0328C23.7247 10.7183 22.9802 10.8588 22.9802 11.6416V11.8423C22.9802 12.7254 24.1071 12.9261 25.7371 12.9261Z" fill="var(--fill-0, #1E1E1E)"/>
<path id="Vector_5" d="M3.69164e-07 15.2946V1.24443H8.5122C14.7706 1.24443 18.272 3.01074 18.272 7.96844V8.57059C18.272 13.5283 14.7706 15.2946 8.5122 15.2946H3.69164e-07ZM8.5122 4.09461H3.1795V12.4444H8.5122C12.1143 12.4444 15.1932 11.9226 15.1932 8.57059V7.96844C15.1932 4.61647 12.1143 4.09461 8.5122 4.09461Z" fill="var(--fill-0, #1E1E1E)"/>
</g>
</svg>
