<svg preserveAspectRatio="none" width="100%" height="100%" overflow="visible" style="display: block;" viewBox="0 0 124 6" fill="none" xmlns="http://www.w3.org/2000/svg">
<g id="slide">
<path id="Line 6 (Stroke)" d="M36 0C37.6569 0 39 1.34315 39 3C39 4.65685 37.6569 6 36 6H3C1.34315 6 0 4.65685 0 3C0 1.34315 1.34315 0 3 0H36Z" fill="var(--fill-0, white)"/>
<path id="Line 6 (Stroke)_2" opacity="0.24" d="M57 0C58.6569 0 60 1.34315 60 3C60 4.65685 58.6569 6 57 6H3C1.34315 6 0 4.65685 0 3C0 1.34315 1.34315 0 3 0H57Z" fill="var(--fill-0, white)"/>
<path id="Line 6 (Stroke)_3" opacity="0.24" d="M89 0C90.6569 0 92 1.34315 92 3C92 4.65685 90.6569 6 89 6H67C65.3431 6 64 4.65685 64 3C64 1.34315 65.3431 0 67 0H89Z" fill="var(--fill-0, white)"/>
<path id="Line 6 (Stroke)_4" opacity="0.24" d="M121 0C122.657 0 124 1.34315 124 3C124 4.65685 122.657 6 121 6H99C97.3431 6 96 4.65685 96 3C96 1.34315 97.3431 0 99 0H121Z" fill="var(--fill-0, white)"/>
</g>
</svg>
