<svg preserveAspectRatio="none" width="100%" height="100%" overflow="visible" style="display: block;" viewBox="0 0 27.9998 24.8889" fill="none" xmlns="http://www.w3.org/2000/svg">
<g id="Group 2087327113">
<path id="Vector" d="M8.70709 0.0460737C9.74815 2.85997 11.0601 5.56426 12.3503 8.26744C12.9486 9.52899 12.5167 11.1294 11.2156 11.7233C10.6162 12.0174 10.0168 11.9884 9.41201 11.9962C8.96382 12.0007 8.51562 12.0096 8.06852 12.0197C5.37176 12.0857 2.69023 12.2042 2.46109e-07 12.5017L0.0119665 8.92282C1.78841 9.12525 3.56703 9.23485 5.34674 9.31762C6.89909 9.38584 8.46341 9.42163 10.0179 9.4384C10.1115 9.43393 10.1724 9.41715 10.1865 9.41044C10.2029 9.40262 10.1735 9.41939 10.1594 9.44959C10.1409 9.47755 10.1419 9.49992 10.1419 9.48202C10.0973 9.27847 9.92003 9.02012 9.81124 8.78414C8.96708 7.177 8.06526 5.58439 7.11992 4.03205C6.64998 3.26483 6.14631 2.46629 5.63393 1.72815L8.70709 0.0460737Z" fill="var(--fill-0, #0060FD)"/>
<path id="Vector_2" d="M19.098 24.8448C18.1538 22.297 17.0094 19.8724 15.8345 17.4286C15.7181 17.177 15.5615 16.8773 15.4897 16.5943C15.0415 15.108 15.927 13.5914 17.4293 13.3353C17.5925 13.3017 17.7828 13.2861 17.9482 13.2794C19.5375 13.2648 21.1367 13.2279 22.7249 13.1575C24.4861 13.0758 26.2441 12.9696 27.9998 12.7705L27.9879 16.3494C24.9463 16.0116 21.8883 15.9009 18.8315 15.8517C18.7129 15.8506 18.1201 15.8416 18.0135 15.8416C17.9808 15.8405 17.9612 15.845 17.9319 15.8461H17.9014C17.8938 15.8483 17.8873 15.8506 17.8797 15.8517C17.8655 15.8551 17.8459 15.8539 17.8405 15.8595C17.797 15.8707 17.8057 15.8752 17.8263 15.8528C17.847 15.8316 17.8655 15.7947 17.8655 15.788C17.8677 15.7801 17.8644 15.807 17.8807 15.8562C18.7347 17.5718 19.7148 19.2584 20.7102 20.9024C21.1791 21.664 21.6577 22.4223 22.1712 23.1582L19.0991 24.8425L19.098 24.8448Z" fill="var(--fill-0, #0060FD)"/>
<path id="Vector_3" d="M21.9461 1.77378C17.164 9.16641 12.8278 16.8711 9.11393 24.8889L6.09082 23.1151C8.54499 19.4535 10.75 15.6397 12.892 11.7835C15.0187 7.91828 17.0835 4.02289 18.923 0L21.9461 1.77378Z" fill="var(--fill-0, #0060FD)"/>
</g>
</svg>
