<svg preserveAspectRatio="none" width="100%" height="100%" overflow="visible" style="display: block;" viewBox="0 0 28 28" fill="none" xmlns="http://www.w3.org/2000/svg">
<g id="Loader">
<path id="Ellipse 18" d="M14 5.25C15.7306 5.25 17.4223 5.76318 18.8612 6.72464C20.3002 7.6861 21.4217 9.05267 22.0839 10.6515C22.7462 12.2504 22.9195 14.0097 22.5819 15.707C22.2443 17.4044 21.4109 18.9635 20.1872 20.1872C18.9635 21.4109 17.4044 22.2443 15.707 22.5819C14.0097 22.9195 12.2504 22.7462 10.6515 22.0839C9.05267 21.4217 7.6861 20.3002 6.72464 18.8612C5.76318 17.4223 5.25 15.7306 5.25 14L7.4375 14C7.4375 15.2979 7.82238 16.5667 8.54348 17.6459C9.26458 18.7251 10.2895 19.5663 11.4886 20.063C12.6878 20.5597 14.0073 20.6896 15.2803 20.4364C16.5533 20.1832 17.7226 19.5582 18.6404 18.6404C19.5582 17.7226 20.1832 16.5533 20.4364 15.2803C20.6896 14.0073 20.5597 12.6878 20.063 11.4886C19.5663 10.2895 18.7251 9.26458 17.6459 8.54348C16.5667 7.82238 15.2979 7.4375 14 7.4375L14 5.25Z" fill="var(--fill-0, black)"/>
</g>
</svg>
