<svg preserveAspectRatio="none" width="100%" height="100%" overflow="visible" style="display: block;" viewBox="0 0 12 12" fill="none" xmlns="http://www.w3.org/2000/svg">
<g id="sagittarius">
<g id="Vector" opacity="0">
</g>
<path id="Vector_2" d="M10.845 1.355C10.805 1.265 10.735 1.19 10.64 1.15C10.595 1.135 10.55 1.125 10.5 1.125H6C5.795 1.125 5.625 1.295 5.625 1.5C5.625 1.705 5.795 1.875 6 1.875H9.595L1.235 10.235C1.09 10.38 1.09 10.62 1.235 10.765C1.31 10.84 1.405 10.875 1.5 10.875C1.595 10.875 1.69 10.84 1.765 10.765L10.125 2.405V6C10.125 6.205 10.295 6.375 10.5 6.375C10.705 6.375 10.875 6.205 10.875 6V1.5C10.875 1.45 10.865 1.405 10.845 1.355Z" fill="var(--fill-0, white)"/>
</g>
</svg>
