<svg preserveAspectRatio="none" width="100%" height="100%" overflow="visible" style="display: block;" viewBox="0 0 223.12 138.906" fill="none" xmlns="http://www.w3.org/2000/svg">
<path id="Subtract" d="M59.2314 47.752C66.256 40.7527 77.6444 40.7527 84.6689 47.752L146.535 109.396C150.047 112.896 155.742 112.896 159.254 109.396C162.766 105.897 162.766 100.222 159.254 96.7227L147.626 85.1367L158.163 74.6367C165.188 67.6375 176.577 67.6373 183.602 74.6367L223.12 106.771V129.945C223.12 134.894 219.093 138.906 214.126 138.906H8.99414C4.02716 138.906 0.000256716 134.894 0 129.945V106.771L59.2314 47.752ZM134.907 0C142.358 0.000230408 148.397 6.01861 148.397 13.4424C148.397 20.8664 142.358 26.8855 134.907 26.8857C127.457 26.8857 121.416 20.8665 121.416 13.4424C121.416 6.01847 127.457 0 134.907 0Z" fill="var(--fill-0, #EAF0FB)"/>
</svg>
