<svg preserveAspectRatio="none" width="100%" height="100%" overflow="visible" style="display: block;" viewBox="0 0 264.233 281.73" fill="none" xmlns="http://www.w3.org/2000/svg">
<path id="Vector" d="M209.928 277.004V234.109C189.519 258.828 152.344 281.73 103.871 281.73C43.0062 281.73 0 242.833 0 182.488V170.856C0 110.511 43.0062 71.6139 103.871 71.6139C152.344 71.6139 189.519 94.5158 209.928 119.235V0H264.233V277.004H209.928ZM51.3887 182.488C51.3887 216.659 83.4612 231.564 125.374 231.564C155.988 231.564 190.248 220.295 209.928 208.662V144.682C190.248 133.049 155.988 121.78 125.374 121.78C83.4612 121.78 51.3887 136.684 51.3887 170.856V182.488Z" fill="var(--fill-0, #1E1E1E)"/>
</svg>
