<svg preserveAspectRatio="none" width="100%" height="100%" overflow="visible" style="display: block;" viewBox="0 0 16 16" fill="none" xmlns="http://www.w3.org/2000/svg">
<g id="folder">
<path id="Vector" d="M13.714 4.95914C14.1833 5.4681 13.7172 6.16667 13.0249 6.16667H2.33333C1.78105 6.16667 1.33333 5.71895 1.33333 5.16667V4.28C1.33333 2.65333 2.65333 1.33333 4.28 1.33333H5.82667C6.91333 1.33333 7.25333 1.68667 7.68667 2.26667L8.62 3.50667C8.82667 3.78 8.85333 3.81333 9.24 3.81333H11.1C12.133 3.81333 13.064 4.25429 13.714 4.95914Z" fill="var(--fill-0, #C9CED9)"/>
<path id="Vector_2" d="M13.6567 7.1665C14.2077 7.16649 14.6548 7.61215 14.6567 8.16311L14.6667 11.1C14.6667 13.0667 13.0667 14.6667 11.1 14.6667H4.9C2.93333 14.6667 1.33333 13.0667 1.33333 11.1V8.16665C1.33333 7.61437 1.78104 7.16666 2.33332 7.16665L13.6567 7.1665Z" fill="var(--fill-0, #C9CED9)"/>
<g id="Vector_3" opacity="0">
</g>
</g>
</svg>
