<svg preserveAspectRatio="none" width="100%" height="100%" overflow="visible" style="display: block;" viewBox="0 0 16 16" fill="none" xmlns="http://www.w3.org/2000/svg">
<g id="path">
<path id="Vector" d="M13.3467 7.13333L11.9333 8.02667C11.6667 8.19333 11.3267 8.15333 11.1067 7.93333L8.08667 4.91333C7.86667 4.69333 7.82667 4.35333 7.99333 4.08667L8.88667 2.67333C9.43333 1.81333 10.5267 1.77333 11.3333 2.57333L13.4533 4.69333C14.2 5.44667 14.1533 6.62 13.3467 7.13333Z" fill="var(--fill-0, #C9CED9)"/>
<path id="Vector_2" d="M9.80667 13.3L3.99333 13.98C3.46499 14.0504 3.32557 13.4278 3.70248 13.0509L5.32 11.4333C5.53333 11.2267 5.53333 10.9 5.32 10.6933C5.12 10.4867 4.79333 10.4867 4.58 10.6933L2.95719 12.3161C2.58288 12.6905 1.97199 12.5525 2.03333 12.0267L2.72 6.21333C2.89333 4.76 3.42667 4.28 4.96 4.37333L5.96 4.43333C6.28667 4.45333 6.59333 4.59333 6.82667 4.82667L11.1933 9.19333C11.4267 9.42667 11.5667 9.73333 11.58 10.06L11.64 11.06C11.7933 12.6 11.2667 13.1333 9.80667 13.3Z" fill="var(--fill-0, #C9CED9)"/>
<g id="Vector_3" opacity="0">
</g>
</g>
</svg>
