<svg preserveAspectRatio="none" width="100%" height="100%" overflow="visible" style="display: block;" viewBox="0 0 16 16" fill="none" xmlns="http://www.w3.org/2000/svg">
<g id="vuesax/bold/check">
<path id="Vector" d="M10 14.6667C9.72667 14.6667 9.5 14.44 9.5 14.1667V1.83333C9.5 1.56 9.72667 1.33333 10 1.33333C10.2733 1.33333 10.5 1.56 10.5 1.83333V14.1667C10.5 14.44 10.2733 14.6667 10 14.6667Z" fill="var(--fill-0, #C9CED9)"/>
<path id="Vector_2" d="M12 13.3333H10V2.66667H12C13.4733 2.66667 14.6667 3.86 14.6667 5.33333V10.6667C14.6667 12.14 13.4733 13.3333 12 13.3333Z" fill="var(--fill-0, #C9CED9)"/>
<path id="Vector_3" d="M4 2.66667C2.52667 2.66667 1.33333 3.86 1.33333 5.33333V10.6667C1.33333 12.14 2.52667 13.3333 4 13.3333H7.33333C7.7 13.3333 8 13.0333 8 12.6667V3.33333C8 2.96667 7.7 2.66667 7.33333 2.66667H4ZM5.16667 10.3333C5.16667 10.6067 4.94 10.8333 4.66667 10.8333C4.39333 10.8333 4.16667 10.6067 4.16667 10.3333V5.66667C4.16667 5.39333 4.39333 5.16667 4.66667 5.16667C4.94 5.16667 5.16667 5.39333 5.16667 5.66667V10.3333Z" fill="var(--fill-0, #C9CED9)"/>
<g id="Vector_4" opacity="0">
</g>
</g>
</svg>
