<svg preserveAspectRatio="none" width="100%" height="100%" overflow="visible" style="display: block;" viewBox="0 0 16 16" fill="none" xmlns="http://www.w3.org/2000/svg">
<g id="document-code">
<g id="Vector" opacity="0">
</g>
<path id="Vector_2" d="M10.6667 1.33333H5.33333C3 1.33333 2 2.66667 2 4.66667V11.3333C2 13.3333 3 14.6667 5.33333 14.6667H10.6667C13 14.6667 14 13.3333 14 11.3333V4.66667C14 2.66667 13 1.33333 10.6667 1.33333ZM7.02 10.98C7.21333 11.1733 7.21333 11.4933 7.02 11.6867C6.92 11.7867 6.79333 11.8333 6.66667 11.8333C6.54 11.8333 6.41333 11.7867 6.31333 11.6867L4.98 10.3533C4.78667 10.16 4.78667 9.84 4.98 9.64667L6.31333 8.31333C6.50667 8.12 6.82667 8.12 7.02 8.31333C7.21333 8.50667 7.21333 8.82667 7.02 9.02L6.04 10L7.02 10.98ZM11.02 10.3533L9.68667 11.6867C9.58667 11.7867 9.46 11.8333 9.33333 11.8333C9.20667 11.8333 9.08 11.7867 8.98 11.6867C8.78667 11.4933 8.78667 11.1733 8.98 10.98L9.96 10L8.98 9.02C8.78667 8.82667 8.78667 8.50667 8.98 8.31333C9.17333 8.12 9.49333 8.12 9.68667 8.31333L11.02 9.64667C11.2133 9.84 11.2133 10.16 11.02 10.3533ZM12.3333 6.16667H11C9.98667 6.16667 9.16667 5.34667 9.16667 4.33333V3C9.16667 2.72667 9.39333 2.5 9.66667 2.5C9.94 2.5 10.1667 2.72667 10.1667 3V4.33333C10.1667 4.79333 10.54 5.16667 11 5.16667H12.3333C12.6067 5.16667 12.8333 5.39333 12.8333 5.66667C12.8333 5.94 12.6067 6.16667 12.3333 6.16667Z" fill="var(--fill-0, #C9CED9)"/>
</g>
</svg>
