<svg preserveAspectRatio="none" width="100%" height="100%" overflow="visible" style="display: block;" viewBox="0 0 360 71.7544" fill="none" xmlns="http://www.w3.org/2000/svg">
<g id="Group 2147221812">
<path id="Vector" d="M346.656 70.5508V60.6446C341.909 67.2179 333.132 71.7544 322.116 71.7544C308.682 71.7544 300.264 66.6624 300.264 55.7378V53.4232C300.264 42.1282 309.667 38.8879 321.668 38.8879H345.76C343.521 32.4072 336.894 31.6665 327.579 31.6665H295.606L306.891 19.6309H330.266C352.298 19.6309 360 26.4819 360 49.4422V70.5508H346.656ZM325.251 59.6262C332.595 59.6262 341.909 57.3116 346.656 54.2565V49.4422H322.116C316.295 49.4422 312.981 50.0903 312.981 53.701V54.6268C312.981 58.7004 317.996 59.6262 325.251 59.6262Z" fill="var(--fill-0, #1E1E1E)"/>
<path id="Vector_2" d="M276.921 70.5474V59.6227C271.906 65.9183 262.771 71.7509 250.859 71.7509C235.903 71.7509 225.335 61.8447 225.335 46.4761V43.5135C225.335 28.145 235.903 18.2387 250.859 18.2387C262.771 18.2387 271.906 24.0714 276.921 30.3669V0.000114024H290.265V70.5474H276.921ZM237.962 46.4761C237.962 55.1788 245.844 58.9747 256.143 58.9747C263.666 58.9747 272.085 56.1046 276.921 53.142V36.8476C272.085 33.885 263.666 31.015 256.143 31.015C245.844 31.015 237.962 34.8108 237.962 43.5135V46.4761Z" fill="var(--fill-0, #1E1E1E)"/>
<path id="Vector_3" d="M192.089 31.0198C185.461 31.0198 176.147 33.612 171.58 37.2227V70.5522H158.235V19.6322H171.58V30.6494C176.326 23.7058 185.461 18.2435 195.94 18.2435C210.628 18.2435 219.046 27.7794 219.046 42.7776V70.5522H205.702V45.5551C205.702 34.4453 202.209 31.0198 192.089 31.0198Z" fill="var(--fill-0, #1E1E1E)"/>
<path id="Vector_4" d="M135.948 70.5508V60.6446C131.202 67.2179 122.425 71.7544 111.409 71.7544C97.9748 71.7544 89.5562 66.6624 89.5562 55.7378V53.4232C89.5562 42.1282 98.96 38.8879 110.961 38.8879H135.053C132.814 32.4072 126.186 31.6665 116.872 31.6665H84.8991L96.1836 19.6309H119.559C141.59 19.6309 149.293 26.4819 149.293 49.4422V70.5508H135.948ZM114.543 59.6262C121.887 59.6262 131.202 57.3116 135.948 54.2565V49.4422H111.409C105.587 49.4422 102.274 50.0903 102.274 53.701V54.6268C102.274 58.7004 107.289 59.6262 114.543 59.6262Z" fill="var(--fill-0, #1E1E1E)"/>
<path id="Vector_5" d="M0 70.5464V5.73924H37.8838C65.7369 5.73924 81.3204 13.8864 81.3204 36.7541V39.5316C81.3204 62.3992 65.7369 70.5464 37.8838 70.5464H0ZM37.8838 18.8858H14.1505V57.3998H37.8838C53.915 57.3998 67.6177 54.9927 67.6177 39.5316V36.7541C67.6177 21.293 53.915 18.8858 37.8838 18.8858Z" fill="var(--fill-0, #1E1E1E)"/>
</g>
</svg>
