<svg preserveAspectRatio="none" width="100%" height="100%" overflow="visible" style="display: block;" viewBox="0 0 100.659 4.87067" fill="none" xmlns="http://www.w3.org/2000/svg">
<g id="slide">
<path id="Line 6 (Stroke)" d="M29.2235 0C30.5685 0 31.6588 1.09032 31.6588 2.43529C31.6588 3.78027 30.5685 4.87059 29.2235 4.87059H2.4353C1.09032 4.87059 0 3.78027 0 2.43529C0 1.09032 1.09032 0 2.43529 0H29.2235Z" fill="var(--fill-0, white)"/>
<path id="Line 6 (Stroke)_2" opacity="0.24" d="M46.2706 0C47.6156 0 48.7059 1.09032 48.7059 2.43529C48.7059 3.78027 47.6156 4.87059 46.2706 4.87059H2.43529C1.09032 4.87059 0 3.78027 0 2.43529C0 1.09032 1.09032 0 2.43529 0H46.2706Z" fill="var(--fill-0, white)"/>
<path id="Line 6 (Stroke)_3" opacity="0.24" d="M72.2471 7.92498e-05C73.592 7.92498e-05 74.6824 1.0904 74.6824 2.43537C74.6824 3.78035 73.592 4.87067 72.2471 4.87067H54.3882C53.0433 4.87067 51.9529 3.78035 51.9529 2.43537C51.9529 1.0904 53.0433 7.92498e-05 54.3882 7.92498e-05H72.2471Z" fill="var(--fill-0, white)"/>
<path id="Line 6 (Stroke)_4" opacity="0.24" d="M98.2236 7.92498e-05C99.5685 7.92498e-05 100.659 1.0904 100.659 2.43537C100.659 3.78035 99.5685 4.87067 98.2236 4.87067H80.3647C79.0198 4.87067 77.9294 3.78035 77.9294 2.43537C77.9294 1.0904 79.0198 7.92498e-05 80.3647 7.92498e-05H98.2236Z" fill="var(--fill-0, white)"/>
</g>
</svg>
