<svg width="464" height="464" viewBox="0 0 464 464" fill="none" xmlns="http://www.w3.org/2000/svg">
<rect width="464" height="464" rx="52" fill="#0060FD"/>
<path d="M179.449 108.902C189.785 136.84 202.811 163.69 215.621 190.529C221.561 203.054 217.273 218.944 204.355 224.84C198.404 227.761 192.453 227.472 186.448 227.55C181.998 227.594 177.548 227.683 173.109 227.783C146.334 228.438 119.71 229.615 93 232.569L93.1188 197.036C110.756 199.045 128.416 200.134 146.086 200.955C161.498 201.633 177.03 201.988 192.464 202.155C193.393 202.11 193.997 201.944 194.138 201.877C194.3 201.799 194.008 201.966 193.868 202.266C193.684 202.543 193.695 202.765 193.695 202.588C193.252 200.567 191.492 198.002 190.412 195.659C182.03 179.702 173.076 163.89 163.691 148.477C159.025 140.86 154.024 132.931 148.937 125.603L179.449 108.902Z" fill="white"/>
<path d="M282.616 355.118C273.241 329.822 261.879 305.749 250.214 281.486C249.058 278.988 247.503 276.012 246.79 273.203C242.34 258.445 251.132 243.388 266.048 240.845C267.668 240.512 269.558 240.357 271.2 240.29C286.98 240.146 302.857 239.779 318.626 239.08C336.112 238.269 353.566 237.214 370.998 235.238L370.88 270.771C340.681 267.417 310.32 266.318 279.97 265.829C278.793 265.818 272.906 265.729 271.848 265.729C271.524 265.718 271.329 265.763 271.038 265.774H270.735C270.66 265.796 270.595 265.818 270.519 265.829C270.379 265.863 270.185 265.852 270.131 265.907C269.699 266.018 269.785 266.063 269.99 265.841C270.195 265.63 270.379 265.263 270.379 265.196C270.401 265.119 270.368 265.385 270.53 265.874C279.009 282.908 288.74 299.653 298.623 315.976C303.278 323.538 308.03 331.066 313.128 338.373L282.627 355.095L282.616 355.118Z" fill="white"/>
<path d="M310.894 126.056C263.414 199.454 220.362 275.95 183.488 355.556L153.473 337.945C177.84 301.59 199.733 263.725 220.999 225.438C242.115 187.062 262.614 148.386 280.878 108.445L310.894 126.056Z" fill="white"/>
</svg>
