<svg preserveAspectRatio="none" width="100%" height="100%" overflow="visible" style="display: block;" viewBox="0 0 112.147 5.42653" fill="none" xmlns="http://www.w3.org/2000/svg">
<g id="slide">
<path id="Line 6 (Stroke)" d="M61.5 0C62.9985 0 64.2132 1.21476 64.2132 2.71324C64.2132 4.21171 62.9985 5.42647 61.5 5.42647H31.6544C30.1559 5.42647 28.9412 4.21171 28.9412 2.71324C28.9412 1.21476 30.1559 0 31.6544 0H61.5Z" fill="var(--fill-0, white)"/>
<path id="Line 6 (Stroke)_2" d="M22.6103 5.85608e-05C24.1088 5.85608e-05 25.3235 1.21482 25.3235 2.71329C25.3235 4.21177 24.1088 5.42653 22.6103 5.42653H2.71323C1.21475 5.42653 0 4.21177 0 2.71329C0 1.21482 1.21476 5.85608e-05 2.71323 5.85608e-05H22.6103Z" fill="var(--fill-0, white)"/>
<path id="Line 6 (Stroke)_3" opacity="0.24" d="M80.4926 0C81.9911 0 83.2059 1.21476 83.2059 2.71324C83.2059 4.21171 81.9911 5.42647 80.4926 5.42647H31.6544C30.1559 5.42647 28.9412 4.21171 28.9412 2.71324C28.9412 1.21476 30.1559 0 31.6544 0H80.4926Z" fill="var(--fill-0, white)"/>
<path id="Line 6 (Stroke)_4" opacity="0.24" d="M109.434 0C110.932 0 112.147 1.21476 112.147 2.71324C112.147 4.21171 110.932 5.42647 109.434 5.42647H89.5368C88.0383 5.42647 86.8235 4.21171 86.8235 2.71324C86.8235 1.21476 88.0383 0 89.5368 0H109.434Z" fill="var(--fill-0, white)"/>
</g>
</svg>
