<svg preserveAspectRatio="none" width="100%" height="100%" overflow="visible" style="display: block;" viewBox="0 0 124 6" fill="none" xmlns="http://www.w3.org/2000/svg">
<g id="slide">
<path id="Line 6 (Stroke)" d="M100 0C101.657 0 103 1.34315 103 3C103 4.65685 101.657 6 100 6H67C65.3431 6 64 4.65685 64 3C64 1.34315 65.3431 0 67 0H100Z" fill="var(--fill-0, white)"/>
<path id="Line 6 (Stroke)_2" d="M25 0C26.6569 0 28 1.34315 28 3C28 4.65685 26.6569 6 25 6H3C1.34315 6 0 4.65685 0 3C0 1.34315 1.34315 0 3 0H25Z" fill="var(--fill-0, white)"/>
<path id="Line 6 (Stroke)_3" d="M57 0C58.6569 0 60 1.34315 60 3C60 4.65685 58.6569 6 57 6H35C33.3431 6 32 4.65685 32 3C32 1.34315 33.3431 0 35 0H57Z" fill="var(--fill-0, white)"/>
<path id="Line 6 (Stroke)_4" opacity="0.24" d="M121 0C122.657 0 124 1.34315 124 3C124 4.65685 122.657 6 121 6H67C65.3431 6 64 4.65685 64 3C64 1.34315 65.3431 0 67 0H121Z" fill="var(--fill-0, white)"/>
</g>
</svg>
