<svg preserveAspectRatio="none" width="100%" height="100%" overflow="visible" style="display: block;" viewBox="0 0 36 36" fill="none" xmlns="http://www.w3.org/2000/svg">
<g id="BoxiconsLogo">
<path id="Union" d="M24.711 12.8325C30.444 12.8325 31.5001 16.6023 31.5001 21.5073V31.4927H25.8438V22.6372C25.8438 20.5268 25.8075 17.8103 22.9024 17.8101C19.9564 17.8101 19.5089 20.1108 19.5089 22.4868V31.4917H13.8556V13.2827H19.2823V15.7729H19.3595C20.114 14.3435 21.9586 12.8325 24.711 12.8325ZM10.3048 31.4917H4.64267V13.2827H10.3048V31.4917ZM7.4747 4.23096C9.28721 4.23105 10.7569 5.70065 10.7569 7.51318C10.7569 9.32572 9.28722 10.7953 7.4747 10.7954C5.6621 10.7954 4.19247 9.32578 4.19247 7.51318C4.19248 5.70059 5.66211 4.23096 7.4747 4.23096Z" fill="var(--fill-0, #ADB3C1)"/>
</g>
</svg>
