<svg preserveAspectRatio="none" width="100%" height="100%" overflow="visible" style="display: block;" viewBox="0 0 157.079 5.01316" fill="none" xmlns="http://www.w3.org/2000/svg">
<g id="Frame 2147221817">
<path id="Line 6 (Stroke)" opacity="0.24" d="M47.625 0C49.0093 0 50.1316 1.12223 50.1316 2.50658C50.1316 3.89092 49.0093 5.01316 47.625 5.01316H2.50658C1.12223 5.01316 0 3.89092 0 2.50658C0 1.12223 1.12223 0 2.50658 0H47.625Z" fill="var(--fill-0, white)"/>
<path id="Line 6 (Stroke)_2" d="M30.0789 0C31.4633 0 32.5855 1.12223 32.5855 2.50658C32.5855 3.89092 31.4633 5.01316 30.0789 5.01316H2.50658C1.12223 5.01316 0 3.89092 0 2.50658C0 1.12223 1.12223 0 2.50658 0H30.0789Z" fill="var(--fill-0, white)"/>
<path id="Line 6 (Stroke)_3" opacity="0.24" d="M74.3618 0C75.7462 0 76.8684 1.12223 76.8684 2.50658C76.8684 3.89092 75.7462 5.01316 74.3618 5.01316H55.9803C54.5959 5.01316 53.4737 3.89092 53.4737 2.50658C53.4737 1.12223 54.5959 0 55.9803 0H74.3618Z" fill="var(--fill-0, white)"/>
<path id="Line 6 (Stroke)_4" opacity="0.24" d="M101.099 0C102.483 0 103.605 1.12223 103.605 2.50658C103.605 3.89092 102.483 5.01316 101.099 5.01316H82.7171C81.3328 5.01316 80.2105 3.89092 80.2105 2.50658C80.2105 1.12223 81.3328 0 82.7171 0H101.099Z" fill="var(--fill-0, white)"/>
<path id="Line 6 (Stroke)_5" opacity="0.24" d="M127.836 0C129.22 0 130.342 1.12223 130.342 2.50658C130.342 3.89092 129.22 5.01316 127.836 5.01316H109.454C108.07 5.01316 106.947 3.89092 106.947 2.50658C106.947 1.12223 108.07 0 109.454 0H127.836Z" fill="var(--fill-0, white)"/>
<path id="Line 6 (Stroke)_6" opacity="0.24" d="M154.572 0C155.957 0 157.079 1.12223 157.079 2.50658C157.079 3.89092 155.957 5.01316 154.572 5.01316H136.191C134.806 5.01316 133.684 3.89092 133.684 2.50658C133.684 1.12223 134.806 0 136.191 0H154.572Z" fill="var(--fill-0, white)"/>
</g>
</svg>
