<svg preserveAspectRatio="none" width="100%" height="100%" overflow="visible" style="display: block;" viewBox="0 0 175.44 5.59937" fill="none" xmlns="http://www.w3.org/2000/svg">
<g id="Frame 2147221817">
<path id="Line 6 (Stroke)" d="M63.4562 0.000228292C65.0023 0.000228292 66.2557 1.25364 66.2557 2.7998C66.2557 4.34596 65.0023 5.59937 63.4562 5.59937H32.6609C31.1147 5.59937 29.8613 4.34596 29.8613 2.7998C29.8613 1.25364 31.1147 0.000228292 32.6609 0.000228292H63.4562Z" fill="var(--fill-0, white)"/>
<path id="Line 6 (Stroke)_2" d="M23.3297 0.000228292C24.8759 0.000228292 26.1293 1.25364 26.1293 2.7998C26.1293 4.34596 24.8759 5.59937 23.3297 5.59937H2.79957C1.25341 5.59937 0 4.34596 0 2.7998C0 1.25364 1.25341 0.000228292 2.79957 0.000228292H23.3297Z" fill="var(--fill-0, white)"/>
<path id="Line 6 (Stroke)_3" opacity="0.24" d="M83.0539 0.000228292C84.6 0.000228292 85.8534 1.25364 85.8534 2.7998C85.8534 4.34596 84.6 5.59937 83.0539 5.59937H32.6616C31.1155 5.59937 29.8621 4.34596 29.8621 2.7998C29.8621 1.25364 31.1155 0.000228292 32.6616 0.000228292H83.0539Z" fill="var(--fill-0, white)"/>
<path id="Line 6 (Stroke)_4" opacity="0.24" d="M112.916 0.000228292C114.462 0.000228292 115.716 1.25364 115.716 2.7998C115.716 4.34596 114.462 5.59937 112.916 5.59937H92.3858C90.8396 5.59937 89.5862 4.34596 89.5862 2.7998C89.5862 1.25364 90.8396 0.000228292 92.3858 0.000228292H112.916Z" fill="var(--fill-0, white)"/>
<path id="Line 6 (Stroke)_5" opacity="0.24" d="M142.778 0C144.324 0 145.578 1.25341 145.578 2.79957C145.578 4.34573 144.324 5.59914 142.778 5.59914H122.248C120.702 5.59914 119.448 4.34573 119.448 2.79957C119.448 1.25341 120.702 0 122.248 0H142.778Z" fill="var(--fill-0, white)"/>
<path id="Line 6 (Stroke)_6" opacity="0.24" d="M172.64 0C174.186 0 175.44 1.25341 175.44 2.79957C175.44 4.34573 174.186 5.59914 172.64 5.59914H152.11C150.564 5.59914 149.31 4.34573 149.31 2.79957C149.31 1.25341 150.564 0 152.11 0H172.64Z" fill="var(--fill-0, white)"/>
</g>
</svg>
