<svg preserveAspectRatio="none" width="100%" height="100%" overflow="visible" style="display: block;" viewBox="0 0 11.1095 11.1095" fill="none" xmlns="http://www.w3.org/2000/svg">
<g id="Outline/Interface/Settings-adjust">
<g id="Icon">
<path fill-rule="evenodd" clip-rule="evenodd" d="M6.18127 4.05032H1.85158C1.65984 4.05032 1.50441 3.89489 1.50441 3.70315C1.50441 3.51142 1.65984 3.35598 1.85158 3.35598H6.18127C6.33239 2.82169 6.82363 2.43019 7.40631 2.43019C7.98899 2.43019 8.48023 2.82169 8.63135 3.35598H9.25788C9.44962 3.35598 9.60506 3.51142 9.60506 3.70315C9.60506 3.89489 9.44962 4.05032 9.25788 4.05032H8.63135C8.48023 4.58462 7.98899 4.97611 7.40631 4.97611C6.82363 4.97611 6.33239 4.58462 6.18127 4.05032ZM6.82769 3.70315C6.82769 3.38359 7.08675 3.12454 7.40631 3.12454C7.72587 3.12454 7.98493 3.38359 7.98493 3.70315C7.98493 4.02271 7.72587 4.28177 7.40631 4.28177C7.08675 4.28177 6.82769 4.02271 6.82769 3.70315Z" fill="var(--fill-0, #B1B4C0)"/>
<path fill-rule="evenodd" clip-rule="evenodd" d="M4.9282 7.75348H9.25788C9.44962 7.75348 9.60506 7.59804 9.60506 7.40631C9.60506 7.21457 9.44962 7.05913 9.25788 7.05913H4.9282C4.77708 6.52484 4.28584 6.13335 3.70316 6.13335C3.12048 6.13335 2.62923 6.52484 2.47811 7.05913H1.85158C1.65984 7.05913 1.50441 7.21457 1.50441 7.40631C1.50441 7.59804 1.65984 7.75348 1.85158 7.75348H2.47811C2.62923 8.28777 3.12048 8.67926 3.70316 8.67926C4.28584 8.67926 4.77708 8.28777 4.9282 7.75348ZM3.12454 7.40631C3.12454 7.08674 3.38359 6.82769 3.70316 6.82769C4.02272 6.82769 4.28177 7.08674 4.28177 7.40631C4.28177 7.72587 4.02272 7.98492 3.70316 7.98492C3.38359 7.98492 3.12454 7.72587 3.12454 7.40631Z" fill="var(--fill-0, #B1B4C0)"/>
</g>
</g>
</svg>
