<svg preserveAspectRatio="none" width="100%" height="100%" overflow="visible" style="display: block;" viewBox="0 0 262.046 204.663" fill="none" xmlns="http://www.w3.org/2000/svg">
<path id="Vector" d="M207.742 199.937V161.04C188.425 186.851 152.708 204.663 107.88 204.663C53.211 204.663 18.9519 184.669 18.9519 141.774V132.686C18.9519 88.336 57.2201 75.6127 106.058 75.6127H204.097C194.986 50.1661 168.016 47.2579 130.112 47.2579H0L45.9218 0H141.046C230.703 0 262.046 26.9007 262.046 117.054V199.937H207.742ZM120.636 157.042C150.522 157.042 188.425 147.954 207.742 135.957V117.054H107.88C84.19 117.054 70.705 119.599 70.705 133.776V137.412C70.705 153.407 91.1147 157.042 120.636 157.042Z" fill="var(--fill-0, #1E1E1E)"/>
</svg>
