<svg preserveAspectRatio="none" width="100%" height="100%" overflow="visible" style="display: block;" viewBox="0 0 16 16" fill="none" xmlns="http://www.w3.org/2000/svg">
<g id="lamp-on">
<path id="Vector" d="M12.8067 4.24C12.1133 2.84 10.7733 1.80667 9.22 1.46667C7.59333 1.10667 5.92667 1.49333 4.65333 2.52C3.37333 3.54 2.64667 5.06667 2.64667 6.7C2.64667 8.42667 3.68 10.2333 5.24 11.28V11.8333C5.23333 12.02 5.22667 12.3067 5.45333 12.54C5.68667 12.78 6.03333 12.8067 6.30667 12.8067H9.72667C10.0867 12.8067 10.36 12.7067 10.5467 12.52C10.8 12.26 10.7933 11.9267 10.7867 11.7467V11.28C12.8533 9.88667 14.1533 6.94667 12.8067 4.24Z" fill="var(--fill-0, #C9CED9)"/>
<path id="Vector_2" d="M10.1733 14.6667C10.1333 14.6667 10.0867 14.66 10.0467 14.6467C8.70667 14.2667 7.3 14.2667 5.96 14.6467C5.71333 14.7133 5.45333 14.5733 5.38667 14.3267C5.31333 14.08 5.46 13.82 5.70667 13.7533C7.21333 13.3267 8.8 13.3267 10.3067 13.7533C10.5533 13.8267 10.7 14.08 10.6267 14.3267C10.56 14.5333 10.3733 14.6667 10.1733 14.6667Z" fill="var(--fill-0, #C9CED9)"/>
<g id="Vector_3" opacity="0">
</g>
</g>
</svg>
